<svg width="111" height="263" viewBox="0 0 111 263" fill="none" xmlns="http://www.w3.org/2000/svg">
<path d="M42.355 246.997C41.9715 244.854 41.9566 240.211 41.8974 237.889L41.5516 223.068C41.3966 202.432 41.3545 181.797 41.4251 161.162L41.1017 103.496L40.9129 78.8084C40.8491 74.4186 40.5743 70.0066 40.6706 65.6038C40.7005 64.2397 40.7937 62.9766 40.8904 61.6224C41.1548 57.9245 40.7683 54.2768 40.6485 50.5976C40.4641 44.9423 40.4776 39.2228 40.6329 33.5654C40.8449 29.3845 41.9605 19.9461 44.3355 16.7695C47.417 12.648 51.1396 9.96166 52.3384 4.40841C52.5567 3.39728 53.0584 0.421664 53.9851 0C54.2695 0.12881 54.6127 0.592206 54.6344 0.600293C55.3861 0.877551 56.5431 0.59365 56.745 1.68579C57.4604 5.55701 59.3143 8.02258 61.7672 10.9757C62.507 11.8664 63.2069 13.3754 63.9214 14.3487C66.7418 18.6601 68.4788 20.9516 69.3899 26.2122C70.2516 31.1884 69.9651 34.7909 69.9379 39.7139L69.5994 125.083C69.5836 126.374 69.0142 127.825 68.9847 129.044C68.9591 130.097 69.55 131.645 69.5502 132.739C69.5505 134.072 68.92 135.699 68.8542 136.954C68.8014 137.962 69.4384 139.239 69.4199 140.455C69.3999 141.777 69.4176 143.019 69.3457 144.357C69.2959 145.282 69.0422 146.993 69.0961 147.782C69.3382 151.318 69.5069 154.793 69.4821 158.345C69.4234 159.642 68.9288 160.793 68.8616 162.094C68.7858 163.555 69.5352 165.33 69.4569 166.723C69.2452 170.488 69.1674 174.241 69.0674 178.006C69.0209 179.752 68.3987 181.674 68.4552 183.462C68.454 184.841 69.2236 185.942 69.4211 187.398C69.6088 188.783 68.65 190.218 68.653 191.044C68.665 194.24 69.7972 194.055 68.7343 197.548C69.0362 198.223 69.2978 198.714 69.2923 199.457C69.2622 203.621 69.0557 207.83 68.9025 211.99C68.739 217.426 68.6177 222.863 68.5384 228.299L68.4393 240.929C68.4364 241.993 68.5439 245.515 68.4299 246.298C72.7981 246.352 77.1666 246.359 81.5349 246.323C81.2474 245.1 81.3395 241.53 81.3122 240.076C81.2009 234.112 81.1526 228.148 81.167 222.182L80.944 160.401C80.949 158.93 80.4459 156.998 80.4187 155.311C80.3106 148.614 80.1286 141.829 80.2276 135.132C80.3063 129.798 79.7488 125.083 80.9195 119.874C80.6277 119.21 80.1558 118.258 80.1031 117.558C79.9907 116.063 80.83 114.499 80.7416 113.066C80.6789 112.053 79.9959 111.008 79.9071 109.932C79.8104 108.763 80.4039 107.346 80.385 106.294L79.6471 76.282L79.4283 63.0423C79.3677 60.6048 79.2678 58.1533 79.2078 55.7166C79.176 54.4293 79.6295 52.5973 79.6504 51.2493C79.6686 50.077 79.1105 48.2617 79.2118 47.1286C79.5761 43.0497 79.9941 37.0192 81.3151 33.218C82.5766 29.5874 87.6539 25.0405 89.3451 21.6628C90.5874 19.1819 91.1035 13.3728 91.6938 10.461C91.9553 9.17046 91.8752 8.24049 92.3282 6.70012L92.8217 6.66864C93.225 6.40524 92.7935 6.59875 93.0427 6.00712L93.6262 5.95571C93.9067 8.04367 93.9044 9.65205 93.9969 11.73C94.1196 12.9592 94.4861 14.2375 94.7374 15.441C95.0742 17.0215 95.1002 19.0985 95.8315 20.5635C97.7786 24.4646 101.248 27.6359 103.894 31.0336C106.07 33.8271 105.679 38.4894 105.981 41.8093C106.067 42.7547 107.05 43.6857 107.176 44.6409C107.449 47.8051 107.518 51.0947 107.591 54.2661C107.72 61.0407 107.779 67.8165 107.77 74.5923L107.938 91.3833C107.981 93.5488 108.184 95.7032 108.188 97.8732C108.189 98.5037 107.538 99.8706 107.59 100.043C108.513 103.106 108.166 106.282 108.315 109.475C108.493 113.309 108.697 117.158 108.761 120.998C109.02 136.982 109.088 152.969 108.964 168.955C108.956 173.441 108.921 177.954 109.013 182.442C109.08 185.701 109.299 189.025 109.283 192.29C109.281 192.663 108.809 193.671 108.834 193.821C108.923 194.354 109.585 195.452 109.617 196.038C109.739 198.127 109.628 200.233 109.649 202.328C109.701 207.797 109.816 213.265 110.006 218.73C110.036 219.619 110.026 220.522 110.021 221.411C109.989 227.205 110.4 232.985 110.54 238.775C110.556 239.426 109.904 239.833 109.425 240.146C109.678 240.531 110.126 240.785 110.513 241.045C110.711 245.069 110.775 248.977 110.714 253.004C110.683 255.058 110.909 257.894 110.602 259.869C109.537 260.523 107.453 262.071 106.458 262.186C104.904 262.363 102.897 262.36 101.315 262.382C97.9809 262.427 94.6468 262.437 91.3126 262.414C80.9671 262.456 70.6216 262.424 60.2766 262.317L18.1332 262.331C13.342 262.291 7.84941 262.389 3.14168 262.151C2.70117 261.718 2.07965 261.085 1.61002 260.711C0.233453 259.614 -0.0337714 259.573 0.0032098 257.749C0.14311 250.788 0.190093 243.824 0.330588 236.864C0.357585 235.527 1.60498 233.858 1.47815 232.601C1.20082 229.852 0.329409 228.418 0.291721 225.527C0.180187 216.972 0.804794 208.451 0.954523 199.918L2.69652 113.347L3.13764 74.5734C3.16605 67.9325 3.22929 61.4074 3.46991 54.7639C3.57369 51.8987 3.33951 48.9517 3.57835 46.0672C3.76394 43.826 4.41983 41.8521 4.76117 39.6807C5.00586 38.1242 4.94206 36.324 5.24409 34.7276C5.28612 34.5098 5.3358 34.2935 5.39299 34.0792C6.43797 30.1978 12.4215 25.6917 14.1889 21.5498C15.1567 19.2819 16.2264 11.6706 18.0068 10.9155C18.3751 10.9755 18.5021 10.9976 18.7557 11.3724C20.5732 14.1028 19.9927 18.4016 21.3082 21.2329C22.967 24.8035 26.2425 27.9745 28.3853 31.3025C30.1324 34.016 30.2446 36.4281 30.6868 39.5347C30.9318 41.1866 31.3119 42.8071 31.5431 44.4621C31.8602 46.7327 31.7476 49.0832 31.8466 51.3381C32.0979 53.7019 31.3546 55.5858 30.9799 57.7967C30.7896 58.9185 31.7066 60.9203 31.5837 62.4061C31.3243 65.5366 31.2477 68.7026 31.1836 71.8402C31.1578 73.1111 30.8494 74.4648 30.8246 75.7478C30.794 77.1923 31.0105 78.7122 30.9827 80.2082C30.5395 102.248 30.3617 124.291 30.4492 146.335C30.4424 150.641 30.1238 154.736 30.057 158.865L29.9112 176.882C29.8325 181.243 29.555 185.672 29.4417 190.038C29.4283 190.552 29.3937 191.782 29.2563 192.225C28.9632 193.171 28.2208 193.837 28.2129 194.916C28.2015 196.477 29.1863 197.41 29.1551 198.943C29.1179 200.777 28.7298 202.877 28.7242 204.686C28.7163 207.183 28.7982 209.678 28.7769 212.187L28.6829 247.502C33.2911 247.186 37.7518 247.157 42.355 246.997Z" fill="#FAF5C3"/>
<path d="M87.4486 256.931L87.051 256.757C87.0587 256.116 87.3783 251.9 87.6128 251.491L87.8726 251.374C88.2996 251.549 88.2415 251.504 88.4826 251.965C88.7752 252.525 88.8268 256.382 88.6627 256.798C88.2255 256.915 88.064 256.887 87.6105 256.856L87.4486 256.931Z" fill="#A5977B"/>
<path d="M87.4486 256.931C87.5492 255.848 87.7452 252.627 88.0853 251.923L88.0494 252.037C88.4208 252.479 88.5369 255.751 88.1897 256.418C88.0455 256.523 87.724 256.744 87.6105 256.856L87.4486 256.931Z" fill="#FAF5C3"/>
<path d="M99.5371 172.631C100.161 173.243 100.29 175.219 99.7667 175.989C99.2876 176.191 99.4114 176.123 98.8122 175.981C98.3185 176.049 98.4425 176.106 98.068 175.896C97.9525 175.62 97.935 175.467 97.9818 175.173C98.1352 174.15 98.6965 173.233 99.5371 172.631Z" fill="#D7C193"/>
<path d="M99.2427 173.317L99.4185 173.522C99.4792 174.194 99.5661 174.809 99.3801 175.457L98.8415 175.75C98.5783 175.612 98.5755 175.574 98.4207 175.306C98.4234 174.491 98.7945 173.965 99.2427 173.317Z" fill="#FAF5C3"/>
<path d="M102.031 226.039C101.885 226.044 101.74 226.044 101.595 226.041C101.192 226.032 100.586 226.09 100.359 225.853C100.314 225.225 100.23 223.849 100.345 223.27L100.737 223.183L101.466 223.196C101.909 223.187 101.819 223.12 102.085 223.353C102.222 223.963 102.07 225.34 102.031 226.039Z" fill="#A5977B"/>
<path d="M100.737 223.183L101.466 223.196L101.401 223.395C101.468 223.511 101.521 223.632 101.559 223.759C101.714 224.25 101.878 225.218 101.625 225.696C101.223 225.873 101.394 225.86 100.979 225.752C100.585 225.296 100.726 223.842 100.737 223.183Z" fill="#FAF5C3"/>
<path d="M11.3964 231.83C11.9247 231.879 12.5241 231.866 12.9164 232.198C13.2971 232.8 13.1274 233.966 13.1064 234.756C12.5111 234.673 11.9963 234.655 11.3989 234.627L11.3964 231.83Z" fill="#47342A"/>
<path d="M11.7533 232.145C12.0859 232.181 12.1336 232.185 12.407 232.374C12.7566 232.978 12.7143 233.697 12.7433 234.406C12.5901 234.35 12.4272 234.232 12.287 234.141C11.9093 233.462 11.8704 232.909 11.7533 232.145Z" fill="#D7C193"/>
<path d="M99.8981 246.636C99.3241 246.393 98.9711 246.362 98.7529 245.751C98.5073 245.063 98.3177 244.565 98.5618 243.846L98.7786 243.705C101.034 244.568 99.8621 246.09 100.957 247.011C100.645 247.087 100.439 246.893 100.08 246.714L99.8981 246.636Z" fill="black"/>
<path d="M99.8981 246.636C99.5272 246.058 98.9558 245.315 99.035 244.64L99.2791 244.578C99.9171 244.977 100.308 246.019 100.08 246.714L99.8981 246.636Z" fill="#D7C193"/>
<path d="M64.3039 248.899L66.0392 248.858C65.9832 249.798 65.965 250.34 66.03 251.277C65.7569 251.335 64.69 251.289 64.3516 251.282L64.3039 248.899Z" fill="#47342A"/>
<path d="M104.569 233.778C105.13 233.84 105.235 233.758 105.617 234.071C105.886 234.775 105.755 235.972 105.761 236.828C105.139 236.844 105.088 236.954 104.67 236.642C104.492 236.128 104.615 234.578 104.569 233.778Z" fill="#47342A"/>
<path d="M79.0818 252.339C78.8013 251.588 78.7773 250.557 79.6183 250.17C80.7552 250.383 80.4617 251.528 80.3752 252.405C80.0472 252.533 79.3868 252.499 79.0818 252.339Z" fill="#47342A"/>
<path d="M79.0818 252.339C79.7805 251.943 79.0528 251.429 79.3344 250.737C79.7243 250.538 79.5605 250.554 79.9518 250.648C80.3391 251.525 79.404 251.908 80.3752 252.405C80.0472 252.533 79.3868 252.499 79.0818 252.339Z" fill="#D7C193"/>
<path d="M100.164 197.418C100.528 197.408 100.58 197.411 100.937 197.514C100.947 197.537 100.637 203.075 100.614 203.67L100.492 203.771C100.142 203.515 100.34 198.435 100.164 197.418Z" fill="#D7C193"/>
<path d="M92.6469 178.149C93.4884 178.446 93.7062 179.895 93.3865 180.683C92.3154 179.639 92.1187 179.587 92.6469 178.149Z" fill="#D7C193"/>
<path d="M96.2955 158.591C96.7205 158.96 97.4916 161.074 97.624 161.661C97.3135 161.662 97.0226 161.662 96.9252 161.331C96.6663 160.452 96.4908 159.484 96.2955 158.591Z" fill="#D7C193"/>
<path d="M77.9082 254.713C78.7069 254.847 78.766 256.014 78.936 256.736C78.498 256.775 78.6516 256.818 78.3215 256.617C78.0283 255.894 78.0033 255.482 77.9082 254.713Z" fill="#876C52"/>
</svg>
